<svg width="16" height="16" viewBox="0 0 16 16" fill="none" xmlns="http://www.w3.org/2000/svg">
<path d="M8.66667 2L10.862 4.19533L6.19534 8.862L7.138 9.80467L11.8047 5.138L14 7.33333V2H8.66667Z" fill="#0074CF"/>
<mask id="path-2-inside-1_52_214" fill="white">
<path d="M12.6667 12.6667H3.33333V3.33333H8L6.66667 2H3.33333C2.598 2 2 2.598 2 3.33333V12.6667C2 13.402 2.598 14 3.33333 14H12.6667C13.402 14 14 13.402 14 12.6667V9.33333L12.6667 8V12.6667Z"/>
</mask>
<path d="M12.6667 12.6667H3.33333V3.33333H8L6.66667 2H3.33333C2.598 2 2 2.598 2 3.33333V12.6667C2 13.402 2.598 14 3.33333 14H12.6667C13.402 14 14 13.402 14 12.6667V9.33333L12.6667 8V12.6667Z" fill="#0074CF"/>
<path d="M12.6667 12.6667V22.6667H22.6667V12.6667H12.6667ZM3.33333 12.6667H-6.66667V22.6667H3.33333V12.6667ZM3.33333 3.33333V-6.66667H-6.66667V3.33333H3.33333ZM8 3.33333V13.3333H32.1421L15.0711 -3.73773L8 3.33333ZM6.66667 2L13.7377 -5.07107L10.8088 -8H6.66667V2ZM14 9.33333H24V5.1912L21.0711 2.26227L14 9.33333ZM12.6667 8L19.7377 0.928933L2.66667 -16.1421V8H12.6667ZM12.6667 2.66667H3.33333V22.6667H12.6667V2.66667ZM13.3333 12.6667V3.33333H-6.66667V12.6667H13.3333ZM3.33333 13.3333H8V-6.66667H3.33333V13.3333ZM15.0711 -3.73773L13.7377 -5.07107L-0.404401 9.07107L0.928933 10.4044L15.0711 -3.73773ZM6.66667 -8H3.33333V12H6.66667V-8ZM3.33333 -8C-2.92485 -8 -8 -2.92485 -8 3.33333H12C12 8.12085 8.12085 12 3.33333 12V-8ZM-8 3.33333V12.6667H12V3.33333H-8ZM-8 12.6667C-8 18.9248 -2.92485 24 3.33333 24V4C8.12085 4 12 7.87915 12 12.6667H-8ZM3.33333 24H12.6667V4H3.33333V24ZM12.6667 24C18.9248 24 24 18.9248 24 12.6667H4C4 7.87915 7.87915 4 12.6667 4V24ZM24 12.6667V9.33333H4V12.6667H24ZM21.0711 2.26227L19.7377 0.928933L5.5956 15.0711L6.92893 16.4044L21.0711 2.26227ZM2.66667 8V12.6667H22.6667V8H2.66667Z" fill="#0074CF" mask="url(#path-2-inside-1_52_214)"/>
</svg>
