<svg width="18" height="18" viewBox="0 0 18 18" fill="none" xmlns="http://www.w3.org/2000/svg">
<path d="M16.92 9.1875C16.92 8.6025 16.8675 8.04 16.77 7.5H9V10.6913H13.44C13.2488 11.7225 12.6675 12.5963 11.7938 13.1813V15.2512H14.46C16.02 13.815 16.92 11.7 16.92 9.1875Z" fill="#4285F4"/>
<path d="M9 17.25C11.2275 17.25 13.095 16.5113 14.46 15.2513L11.7938 13.1813C11.055 13.6763 10.11 13.9688 9 13.9688C6.85125 13.9688 5.0325 12.5175 4.38375 10.5675H1.6275V12.705C2.985 15.4013 5.775 17.25 9 17.25Z" fill="#34A853"/>
<path d="M4.38375 10.5675C4.21875 10.0725 4.125 9.54375 4.125 9C4.125 8.45625 4.21875 7.9275 4.38375 7.4325V5.295H1.6275C1.05 6.44464 0.749491 7.71346 0.750001 9C0.750001 10.3312 1.06875 11.5912 1.6275 12.705L4.38375 10.5675Z" fill="#FBBC05"/>
<path d="M9 4.03125C10.2113 4.03125 11.2988 4.4475 12.1538 5.265L14.52 2.89875C13.0913 1.5675 11.2238 0.75 9 0.75C5.775 0.75 2.985 2.59875 1.6275 5.295L4.38375 7.4325C5.0325 5.4825 6.85125 4.03125 9 4.03125Z" fill="#EA4335"/>
</svg>
